<mxfile host="app.diagrams.net" modified="2021-12-17T16:10:19.790Z" agent="5.0 (Macintosh; Intel Mac OS X 10_15_7) AppleWebKit/537.36 (KHTML, like Gecko) Chrome/96.0.4664.110 Safari/537.36" etag="uqDxrWRYlO2-tnu5_qaP" version="15.9.6" type="github">
  <diagram id="g1WLQjHD38E-jp9Y9wBC" name="Page-1">
    <mxGraphModel dx="1865" dy="667" grid="1" gridSize="10" guides="1" tooltips="1" connect="1" arrows="1" fold="1" page="1" pageScale="1" pageWidth="827" pageHeight="1169" math="0" shadow="0">
      <root>
        <mxCell id="0" />
        <mxCell id="1" parent="0" />
        <mxCell id="HRwK7SKmQaCc1kR09EqM-1" value="Admin &lt;br&gt;Api Call/Client&lt;br&gt;(upload music sheeds)" style="rounded=0;whiteSpace=wrap;html=1;" parent="1" vertex="1">
          <mxGeometry x="20" y="80" width="120" height="60" as="geometry" />
        </mxCell>
        <mxCell id="HRwK7SKmQaCc1kR09EqM-4" style="edgeStyle=orthogonalEdgeStyle;rounded=0;orthogonalLoop=1;jettySize=auto;html=1;entryX=0.5;entryY=1;entryDx=0;entryDy=0;" parent="1" source="HRwK7SKmQaCc1kR09EqM-3" target="HRwK7SKmQaCc1kR09EqM-1" edge="1">
          <mxGeometry relative="1" as="geometry">
            <Array as="points">
              <mxPoint x="80" y="210" />
              <mxPoint x="80" y="210" />
            </Array>
          </mxGeometry>
        </mxCell>
        <mxCell id="HRwK7SKmQaCc1kR09EqM-15" value="" style="edgeStyle=orthogonalEdgeStyle;rounded=0;orthogonalLoop=1;jettySize=auto;html=1;" parent="1" source="HRwK7SKmQaCc1kR09EqM-3" target="HRwK7SKmQaCc1kR09EqM-14" edge="1">
          <mxGeometry relative="1" as="geometry" />
        </mxCell>
        <mxCell id="HRwK7SKmQaCc1kR09EqM-3" value="Blob Store (S3)" style="rounded=0;whiteSpace=wrap;html=1;" parent="1" vertex="1">
          <mxGeometry x="80" y="200" width="120" height="60" as="geometry" />
        </mxCell>
        <mxCell id="HRwK7SKmQaCc1kR09EqM-7" value="" style="edgeStyle=orthogonalEdgeStyle;rounded=0;orthogonalLoop=1;jettySize=auto;html=1;" parent="1" source="HRwK7SKmQaCc1kR09EqM-5" target="HRwK7SKmQaCc1kR09EqM-6" edge="1">
          <mxGeometry relative="1" as="geometry">
            <Array as="points">
              <mxPoint x="440" y="120" />
              <mxPoint x="440" y="260" />
            </Array>
          </mxGeometry>
        </mxCell>
        <mxCell id="HRwK7SKmQaCc1kR09EqM-5" value="User Data/MongoDB" style="rounded=0;whiteSpace=wrap;html=1;" parent="1" vertex="1">
          <mxGeometry x="260" y="90" width="120" height="60" as="geometry" />
        </mxCell>
        <mxCell id="HRwK7SKmQaCc1kR09EqM-9" value="" style="edgeStyle=orthogonalEdgeStyle;rounded=0;orthogonalLoop=1;jettySize=auto;html=1;" parent="1" target="HRwK7SKmQaCc1kR09EqM-8" edge="1">
          <mxGeometry relative="1" as="geometry">
            <mxPoint x="520" y="220" as="sourcePoint" />
          </mxGeometry>
        </mxCell>
        <mxCell id="HRwK7SKmQaCc1kR09EqM-11" value="" style="edgeStyle=orthogonalEdgeStyle;rounded=0;orthogonalLoop=1;jettySize=auto;html=1;" parent="1" source="HRwK7SKmQaCc1kR09EqM-6" target="HRwK7SKmQaCc1kR09EqM-10" edge="1">
          <mxGeometry relative="1" as="geometry" />
        </mxCell>
        <mxCell id="HRwK7SKmQaCc1kR09EqM-13" value="" style="edgeStyle=orthogonalEdgeStyle;rounded=0;orthogonalLoop=1;jettySize=auto;html=1;" parent="1" source="HRwK7SKmQaCc1kR09EqM-6" target="HRwK7SKmQaCc1kR09EqM-12" edge="1">
          <mxGeometry relative="1" as="geometry" />
        </mxCell>
        <mxCell id="HRwK7SKmQaCc1kR09EqM-6" value="API Service" style="whiteSpace=wrap;html=1;rounded=0;" parent="1" vertex="1">
          <mxGeometry x="470" y="230" width="120" height="60" as="geometry" />
        </mxCell>
        <mxCell id="HRwK7SKmQaCc1kR09EqM-8" value="Static Content" style="whiteSpace=wrap;html=1;rounded=0;" parent="1" vertex="1">
          <mxGeometry x="460" y="90" width="120" height="60" as="geometry" />
        </mxCell>
        <mxCell id="HRwK7SKmQaCc1kR09EqM-10" value="Load Balancer" style="whiteSpace=wrap;html=1;rounded=0;" parent="1" vertex="1">
          <mxGeometry x="470" y="370" width="120" height="60" as="geometry" />
        </mxCell>
        <mxCell id="HRwK7SKmQaCc1kR09EqM-12" value="Redis Cache" style="whiteSpace=wrap;html=1;rounded=0;" parent="1" vertex="1">
          <mxGeometry x="670" y="230" width="120" height="60" as="geometry" />
        </mxCell>
        <mxCell id="HRwK7SKmQaCc1kR09EqM-17" value="" style="edgeStyle=orthogonalEdgeStyle;rounded=0;orthogonalLoop=1;jettySize=auto;html=1;" parent="1" source="HRwK7SKmQaCc1kR09EqM-14" target="HRwK7SKmQaCc1kR09EqM-16" edge="1">
          <mxGeometry relative="1" as="geometry" />
        </mxCell>
        <mxCell id="HRwK7SKmQaCc1kR09EqM-14" value="CDN Population" style="rounded=0;whiteSpace=wrap;html=1;" parent="1" vertex="1">
          <mxGeometry x="80" y="320" width="120" height="60" as="geometry" />
        </mxCell>
        <mxCell id="HRwK7SKmQaCc1kR09EqM-16" value="CDN" style="rounded=0;whiteSpace=wrap;html=1;" parent="1" vertex="1">
          <mxGeometry x="80" y="410" width="120" height="60" as="geometry" />
        </mxCell>
        <mxCell id="HRwK7SKmQaCc1kR09EqM-18" value="CAP Theorem in einem verteilten System ummÃ¶glich ist, gleichzeitig drei Eigenschaften Consistency, Availability, and Partition Tolerance zu garantieren.&amp;nbsp;" style="text;html=1;align=center;verticalAlign=middle;resizable=0;points=[];autosize=1;strokeColor=none;fillColor=none;" parent="1" vertex="1">
          <mxGeometry x="-530" y="640" width="830" height="20" as="geometry" />
        </mxCell>
        <mxCell id="HRwK7SKmQaCc1kR09EqM-19" value="&lt;b&gt;Requirements:&lt;/b&gt;" style="text;html=1;align=center;verticalAlign=middle;resizable=0;points=[];autosize=1;strokeColor=none;fillColor=none;" parent="1" vertex="1">
          <mxGeometry x="-725" y="130" width="100" height="20" as="geometry" />
        </mxCell>
        <mxCell id="HRwK7SKmQaCc1kR09EqM-20" value="&lt;b&gt;Non-functional requirements&lt;/b&gt;" style="text;html=1;align=center;verticalAlign=middle;resizable=0;points=[];autosize=1;strokeColor=none;fillColor=none;" parent="1" vertex="1">
          <mxGeometry x="-725" y="310" width="180" height="20" as="geometry" />
        </mxCell>
        <mxCell id="HRwK7SKmQaCc1kR09EqM-21" value="1. Displaying all Scores in a grid and table view with additional information" style="text;html=1;align=center;verticalAlign=middle;resizable=0;points=[];autosize=1;strokeColor=none;fillColor=none;" parent="1" vertex="1">
          <mxGeometry x="-720" y="160" width="410" height="20" as="geometry" />
        </mxCell>
        <mxCell id="HRwK7SKmQaCc1kR09EqM-22" value="2. Visualisation of single single score with certain information and lyrics with translations&amp;nbsp;" style="text;html=1;align=center;verticalAlign=middle;resizable=0;points=[];autosize=1;strokeColor=none;fillColor=none;" parent="1" vertex="1">
          <mxGeometry x="-720" y="190" width="480" height="20" as="geometry" />
        </mxCell>
        <mxCell id="HRwK7SKmQaCc1kR09EqM-25" value="3. Audio Player of the music sheets" style="text;html=1;align=center;verticalAlign=middle;resizable=0;points=[];autosize=1;strokeColor=none;fillColor=none;" parent="1" vertex="1">
          <mxGeometry x="-720" y="220" width="200" height="20" as="geometry" />
        </mxCell>
        <mxCell id="jvVPq2J3I0DBYu00V3Nr-1" value="4. Search Function" style="text;html=1;align=center;verticalAlign=middle;resizable=0;points=[];autosize=1;strokeColor=none;fillColor=none;" vertex="1" parent="1">
          <mxGeometry x="-722" y="250" width="120" height="20" as="geometry" />
        </mxCell>
        <mxCell id="jvVPq2J3I0DBYu00V3Nr-2" value="5. Customer management/user authetication and autorisation&amp;nbsp;" style="text;html=1;align=center;verticalAlign=middle;resizable=0;points=[];autosize=1;strokeColor=none;fillColor=none;" vertex="1" parent="1">
          <mxGeometry x="-720" y="280" width="340" height="20" as="geometry" />
        </mxCell>
        <mxCell id="jvVPq2J3I0DBYu00V3Nr-3" value="1. Optimize for reads" style="text;html=1;align=center;verticalAlign=middle;resizable=0;points=[];autosize=1;strokeColor=none;fillColor=none;" vertex="1" parent="1">
          <mxGeometry x="-728" y="333" width="130" height="20" as="geometry" />
        </mxCell>
        <mxCell id="jvVPq2J3I0DBYu00V3Nr-4" value="2. hight availability" style="text;html=1;align=center;verticalAlign=middle;resizable=0;points=[];autosize=1;strokeColor=none;fillColor=none;" vertex="1" parent="1">
          <mxGeometry x="-724" y="357" width="110" height="20" as="geometry" />
        </mxCell>
        <mxCell id="jvVPq2J3I0DBYu00V3Nr-5" value="3. low latency" style="text;html=1;align=center;verticalAlign=middle;resizable=0;points=[];autosize=1;strokeColor=none;fillColor=none;" vertex="1" parent="1">
          <mxGeometry x="-725" y="380" width="90" height="20" as="geometry" />
        </mxCell>
        <mxCell id="jvVPq2J3I0DBYu00V3Nr-6" value="&lt;b&gt;API&lt;/b&gt;" style="text;html=1;align=center;verticalAlign=middle;resizable=0;points=[];autosize=1;strokeColor=none;fillColor=none;" vertex="1" parent="1">
          <mxGeometry x="-726" y="420" width="40" height="20" as="geometry" />
        </mxCell>
        <mxCell id="jvVPq2J3I0DBYu00V3Nr-8" value="GET:/getScores" style="text;html=1;align=center;verticalAlign=middle;resizable=0;points=[];autosize=1;strokeColor=none;fillColor=none;" vertex="1" parent="1">
          <mxGeometry x="-726" y="480" width="100" height="20" as="geometry" />
        </mxCell>
        <mxCell id="jvVPq2J3I0DBYu00V3Nr-9" value="GETOne:/getOneScore" style="text;html=1;align=center;verticalAlign=middle;resizable=0;points=[];autosize=1;strokeColor=none;fillColor=none;" vertex="1" parent="1">
          <mxGeometry x="-726" y="460" width="140" height="20" as="geometry" />
        </mxCell>
      </root>
    </mxGraphModel>
  </diagram>
</mxfile>
